<svg width="388" height="381" viewBox="0 0 388 381" fill="none" xmlns="http://www.w3.org/2000/svg">
<path d="M8.74055 29.5382C8.8754 30.4849 9.10373 31.3999 9.41887 32.2566C9.71911 33.1459 10.1148 33.9643 10.5921 34.6832C11.2828 35.7579 12.1154 36.6326 13.0437 37.2585C14.9129 38.4975 17.0549 38.6474 19.0058 37.6757C19.9225 37.2032 20.7742 36.5096 21.523 35.626L21.6346 35.4558L23.0702 33.6272L24.3637 35.6467L24.4621 35.8317C25.1419 36.8152 25.9382 37.6241 26.8153 38.2221C28.6845 39.4611 30.8265 39.6109 32.7774 38.6393C33.747 38.1461 34.6399 37.3922 35.4062 36.4194C36.4531 35.122 37.2225 33.4386 37.6274 31.5593C37.8411 30.6056 37.9626 29.6158 37.9887 28.6169C38.0235 27.6756 37.9741 26.7344 37.8396 25.8168C37.6975 24.8868 37.4765 23.9845 37.1812 23.1295C36.8607 22.2494 36.4592 21.433 35.987 20.7015L24.2264 2.33946L11.1729 18.9653C10.65 19.6172 10.1947 20.3748 9.82686 21.2156C9.08432 22.8104 8.65983 24.6568 8.59802 26.5605C8.55025 27.5579 8.59819 28.5595 8.74055 29.5382Z" fill="#FE7474"/>
<line y1="-1.5" x2="22.419" y2="-1.5" transform="matrix(-0.649252 0.760573 -0.431851 -0.901945 21.4707 38.7805)" stroke="#FE7474" stroke-width="3"/>
<path d="M22.457 20.2686L26.6527 318.609" stroke="#FE7474" stroke-width="5"/>
<line y1="-1.5" x2="22.419" y2="-1.5" transform="matrix(-0.649252 0.760573 -0.431851 -0.901945 21.8921 84.9177)" stroke="#FE7474" stroke-width="3"/>
<line y1="-1.5" x2="22.419" y2="-1.5" transform="matrix(-0.649252 0.760573 -0.431851 -0.901945 22.3062 130.286)" stroke="#FE7474" stroke-width="3"/>
<line y1="-1.5" x2="22.419" y2="-1.5" transform="matrix(-0.649252 0.760573 -0.431851 -0.901945 22.7207 175.654)" stroke="#FE7474" stroke-width="3"/>
<line y1="-1.5" x2="22.419" y2="-1.5" transform="matrix(-0.649252 0.760573 -0.431851 -0.901945 24.606 221.009)" stroke="#FE7474" stroke-width="3"/>
<line y1="-1.5" x2="22.419" y2="-1.5" transform="matrix(-0.649252 0.760573 -0.431851 -0.901945 25.0273 267.146)" stroke="#FE7474" stroke-width="3"/>
<line y1="-1.5" x2="22.1004" y2="-1.5" transform="matrix(-0.650407 -0.759585 0.427232 -0.904142 35.8447 55.5674)" stroke="#FE7474" stroke-width="3"/>
<line y1="-1.5" x2="22.1004" y2="-1.5" transform="matrix(-0.650407 -0.759585 0.427232 -0.904142 36.2661 101.705)" stroke="#FE7474" stroke-width="3"/>
<line y1="-1.5" x2="22.1004" y2="-1.5" transform="matrix(-0.650407 -0.759585 0.427232 -0.904142 38.1582 147.828)" stroke="#FE7474" stroke-width="3"/>
<line y1="-1.5" x2="22.1004" y2="-1.5" transform="matrix(-0.650407 -0.759585 0.427232 -0.904142 38.5728 193.197)" stroke="#FE7474" stroke-width="3"/>
<line y1="-1.5" x2="22.1004" y2="-1.5" transform="matrix(-0.650407 -0.759585 0.427232 -0.904142 38.98 237.796)" stroke="#FE7474" stroke-width="3"/>
<line y1="-1.5" x2="22.1004" y2="-1.5" transform="matrix(-0.650407 -0.759585 0.427232 -0.904142 39.4014 283.933)" stroke="#FE7474" stroke-width="3"/>
<ellipse cx="13.0975" cy="4.44296" rx="13.0975" ry="4.44296" transform="matrix(0.781264 -0.6242 0.312455 0.949932 4.94873 324.24)" fill="#FE7474"/>
<ellipse cx="13.1149" cy="4.29068" rx="13.1149" ry="4.29068" transform="matrix(0.790355 0.612648 -0.297088 0.95485 25.5718 307.899)" fill="#FE7474"/>
<path d="M356.168 334.427C355.225 334.585 354.316 334.836 353.467 335.172C352.585 335.494 351.777 335.909 351.07 336.404C350.012 337.121 349.158 337.974 348.555 338.918C347.362 340.816 347.264 342.961 348.283 344.888C348.778 345.793 349.492 346.628 350.394 347.355L350.567 347.462L352.43 348.853L350.442 350.195L350.26 350.298C349.293 351.001 348.504 351.817 347.928 352.709C346.735 354.607 346.637 356.752 347.656 358.679C348.173 359.636 348.948 360.511 349.939 361.253C351.262 362.268 352.963 362.996 354.852 363.355C355.811 363.545 356.803 363.643 357.802 363.644C358.744 363.656 359.684 363.584 360.598 363.427C361.524 363.262 362.421 363.019 363.268 362.703C364.141 362.361 364.947 361.94 365.667 361.45L383.736 349.245L366.797 336.601C366.133 336.094 365.364 335.658 364.515 335.31C362.902 334.607 361.046 334.228 359.141 334.212C358.143 334.189 357.143 334.261 356.168 334.427Z" fill="#FE7474"/>
<line y1="-1.5" x2="22.419" y2="-1.5" transform="matrix(-0.776185 -0.630505 0.891142 -0.453724 347.239 347.379)" stroke="#FE7474" stroke-width="3"/>
<path d="M365.77 347.914L67.6201 359.386" stroke="#FE7474" stroke-width="5"/>
<line y1="-1.5" x2="22.419" y2="-1.5" transform="matrix(-0.776185 -0.630505 0.891142 -0.453724 301.125 348.926)" stroke="#FE7474" stroke-width="3"/>
<line y1="-1.5" x2="22.419" y2="-1.5" transform="matrix(-0.776185 -0.630505 0.891142 -0.453724 255.781 350.447)" stroke="#FE7474" stroke-width="3"/>
<line y1="-1.5" x2="22.419" y2="-1.5" transform="matrix(-0.776185 -0.630505 0.891142 -0.453724 210.437 351.968)" stroke="#FE7474" stroke-width="3"/>
<line y1="-1.5" x2="22.419" y2="-1.5" transform="matrix(-0.776185 -0.630505 0.891142 -0.453724 165.141 354.959)" stroke="#FE7474" stroke-width="3"/>
<line y1="-1.5" x2="22.419" y2="-1.5" transform="matrix(-0.776185 -0.630505 0.891142 -0.453724 119.028 356.505)" stroke="#FE7474" stroke-width="3"/>
<line y1="-1.5" x2="22.1004" y2="-1.5" transform="matrix(0.743493 -0.668743 0.914295 0.405049 330.808 362.158)" stroke="#FE7474" stroke-width="3"/>
<line y1="-1.5" x2="22.1004" y2="-1.5" transform="matrix(0.743493 -0.668743 0.914295 0.405049 284.694 363.705)" stroke="#FE7474" stroke-width="3"/>
<line y1="-1.5" x2="22.1004" y2="-1.5" transform="matrix(0.743493 -0.668743 0.914295 0.405049 238.63 366.722)" stroke="#FE7474" stroke-width="3"/>
<line y1="-1.5" x2="22.1004" y2="-1.5" transform="matrix(0.743493 -0.668743 0.914295 0.405049 193.286 368.243)" stroke="#FE7474" stroke-width="3"/>
<line y1="-1.5" x2="22.1004" y2="-1.5" transform="matrix(0.743493 -0.668743 0.914295 0.405049 148.709 369.738)" stroke="#FE7474" stroke-width="3"/>
<line y1="-1.5" x2="22.1004" y2="-1.5" transform="matrix(0.743493 -0.668743 0.914295 0.405049 102.596 371.284)" stroke="#FE7474" stroke-width="3"/>
<ellipse cx="13.0975" cy="4.44296" rx="13.0975" ry="4.44296" transform="matrix(0.643073 0.765805 -0.942028 0.335535 61.4609 337.826)" fill="#FE7474"/>
<ellipse cx="13.1149" cy="4.29068" rx="13.1149" ry="4.29068" transform="matrix(-0.593186 0.805065 -0.961813 -0.273706 78.3003 358.044)" fill="#FE7474"/>
</svg>
