<svg width="119" height="90" viewBox="0 0 119 90" fill="none" xmlns="http://www.w3.org/2000/svg">
<path d="M100.098 20.4386C97.2418 15.2311 86.8955 9.85356 73.3933 10.2617C66.9437 10.4461 61.0219 11.9445 56.5956 14.5122C53.5301 10.8998 48.6014 7.88829 42.6149 5.96968C30.0551 1.96231 18.064 4.19001 13.153 8.3144C6.26607 14.0869 6.90889 21.7489 15.0683 31.0886C21.4642 38.3986 31.1744 46.2582 45.6741 55.8349C46.1322 56.1385 46.7317 56.3522 47.3775 56.4423C48.0233 56.5323 48.6784 56.4935 49.2389 56.332C66.9339 51.2622 79.4415 46.5533 88.5947 41.3416C100.23 34.7622 104.108 27.7307 100.098 20.4386Z" fill="#F06D6D"/>
<path d="M113.014 55.0459C112.252 50.4468 106.055 44.8518 96.075 43.6429C91.3104 43.0567 86.597 43.6091 82.7049 45.2097C81.3835 41.8953 78.5461 38.861 74.6563 36.6024C66.491 31.8785 57.1523 32.3352 52.5088 35.1575C45.9999 39.1062 44.517 45.466 48.1045 54.0617C50.9193 60.7905 56.0183 68.3491 64.1829 77.8643C64.4406 78.1657 64.8246 78.4096 65.274 78.5574C65.7234 78.7051 66.2125 78.7482 66.6636 78.6797C80.8989 76.5434 91.2479 74.11 99.2715 70.8806C109.459 66.8128 114.088 61.4872 113.014 55.0459Z" fill="#FFBCBC"/>
</svg>
