<svg width="1785" height="497" viewBox="0 0 1785 497" fill="none" xmlns="http://www.w3.org/2000/svg">
<g filter="url(#filter0_f_483_2)">
<path fill-rule="evenodd" clip-rule="evenodd" d="M775.655 199.934C744.052 198.664 716.669 205.748 696.909 219.879C677.333 233.858 666.744 253.654 665.371 275.979C662.986 314.757 688.534 346.76 721.924 372.194C755.172 397.515 797.724 417.469 833.041 432.53C835.621 433.634 838.526 434.276 841.509 434.402C844.492 434.528 847.465 434.134 850.176 433.255C887.183 421.244 931.958 404.658 968.182 382.005C1004.53 359.303 1033.94 329.403 1036.31 290.891C1037.69 268.478 1029.53 247.945 1011.74 232.465C993.785 216.853 967.406 207.625 935.901 206.359C909.292 205.289 886.847 211.502 869.282 224.206C863.278 228.613 858.01 233.511 853.585 238.803C849.831 233.182 845.19 227.885 839.756 223.019C823.837 208.969 802.264 201.004 775.655 199.934Z" fill="url(#paint0_linear_483_2)"/>
</g>
<g filter="url(#filter1_f_483_2)">
<path fill-rule="evenodd" clip-rule="evenodd" d="M570.907 186.601C551.367 182.399 533.199 183.363 518.725 189.134C504.388 194.839 494.783 204.809 490.55 217.218C483.196 238.773 494.307 259.599 511.308 277.594C528.237 295.51 551.787 311.432 571.559 323.804C573.004 324.709 574.72 325.391 576.564 325.791C578.407 326.191 580.323 326.298 582.148 326.102C607.07 323.428 637.534 319.037 663.576 310.288C689.705 301.527 712.587 287.948 719.89 266.541C724.141 254.082 722.153 241.63 713.387 230.956C704.538 220.191 689.464 212.088 669.985 207.899C653.534 204.361 638.58 205.38 625.693 210.589C621.277 212.406 617.247 214.581 613.684 217.071C612.19 213.494 610.094 210.001 607.437 206.663C599.623 197.001 587.358 190.139 570.907 186.601Z" fill="url(#paint1_linear_483_2)"/>
</g>
<g filter="url(#filter2_f_483_2)">
<path fill-rule="evenodd" clip-rule="evenodd" d="M1059.13 202.001C1026.64 207.946 1001.59 221.734 986.914 241.2C972.37 260.461 969.127 283.79 976.171 307.662C988.407 349.128 1026.37 377.004 1069.8 396.143C1113.03 415.194 1163.67 426.438 1205.12 434.188C1208.15 434.757 1211.34 434.764 1214.41 434.21C1217.47 433.655 1220.34 432.555 1222.75 431.002C1255.69 409.797 1294.77 381.974 1322.89 349.722C1351.13 317.389 1369.61 279.061 1357.46 237.88C1350.38 213.914 1334.37 194.13 1310.5 181.897C1286.42 169.564 1256.22 165.909 1223.83 171.836C1196.48 176.842 1176.1 188.572 1163.11 206.025C1158.7 212.059 1155.21 218.443 1152.73 225.047C1146.81 219.981 1140.1 215.462 1132.76 211.58C1111.33 200.425 1086.48 196.995 1059.13 202.001Z" fill="url(#paint2_linear_483_2)"/>
</g>
<g filter="url(#filter3_f_483_2)">
<path fill-rule="evenodd" clip-rule="evenodd" d="M460.082 246.3C429.656 244.557 403.052 251.228 383.589 265.057C364.307 278.737 353.518 298.367 351.537 320.661C348.096 359.389 371.78 391.761 403.217 417.685C434.52 443.494 474.95 464.078 508.55 479.662C511.005 480.804 513.786 481.489 516.658 481.66C519.529 481.83 522.407 481.482 525.045 480.643C561.071 469.191 604.719 453.283 640.304 431.182C676.011 409.035 705.237 379.587 708.655 341.126C710.643 318.743 703.385 298.096 686.693 282.356C669.846 266.481 644.69 256.861 614.358 255.123C588.741 253.655 566.922 259.529 549.617 271.965C543.699 276.28 538.478 281.098 534.056 286.322C530.603 280.647 526.286 275.282 521.191 270.336C506.26 256.053 485.699 247.768 460.082 246.3Z" fill="url(#paint3_linear_483_2)"/>
</g>
<g filter="url(#filter4_f_483_2)">
<path fill-rule="evenodd" clip-rule="evenodd" d="M947.9 198.425C925.78 199.544 907.448 206.272 895.139 217.472C882.942 228.553 877.592 243.154 878.913 258.946C881.206 286.379 902.246 307.265 928.072 323.031C953.788 338.726 985.432 350.053 1011.54 358.399C1013.45 359.011 1015.54 359.278 1017.63 359.176C1019.71 359.075 1021.74 358.609 1023.54 357.818C1048.06 347.01 1077.53 332.49 1100.43 314.247C1123.41 295.961 1140.82 273.053 1138.54 245.809C1137.22 229.954 1129.45 216.029 1115.49 206.272C1101.41 196.433 1082.11 191.621 1060.06 192.737C1041.43 193.679 1026.45 199.48 1015.52 209.536C1011.79 213.019 1008.63 216.8 1006.09 220.805C1002.9 217.09 999.134 213.659 994.857 210.581C982.347 201.711 966.524 197.482 947.9 198.425Z" fill="url(#paint4_linear_483_2)"/>
</g>
<g filter="url(#filter5_f_483_2)">
<path fill-rule="evenodd" clip-rule="evenodd" d="M197.978 42.62C169.336 34.2744 141.421 34.847 117.863 43.8589C94.5319 52.7662 77.2802 69.2495 67.5632 90.2229C50.6843 126.655 62.1115 162.933 83.251 194.718C104.303 226.364 135.96 254.993 162.802 277.325C164.762 278.959 167.196 280.227 169.897 281.02C172.598 281.814 175.487 282.11 178.317 281.884C216.966 278.786 264.505 273.082 306.461 259.662C348.552 246.225 386.969 224.357 403.731 188.175C413.487 167.118 413.743 145.702 403.211 126.928C392.577 107.991 371.762 93.2382 343.21 84.9187C319.096 77.8923 296.06 78.7486 275.065 86.8951C267.864 89.741 261.155 93.2222 255.074 97.2687C253.743 91.0623 251.472 84.9648 248.306 79.0981C238.957 62.1097 222.092 49.6464 197.978 42.62Z" fill="url(#paint5_linear_483_2)"/>
</g>
<g filter="url(#filter6_f_483_2)">
<path fill-rule="evenodd" clip-rule="evenodd" d="M1467.66 54.1222C1437.96 59.5582 1415.05 72.1472 1401.62 89.9132C1388.32 107.493 1385.34 128.78 1391.77 150.559C1402.93 188.389 1437.62 213.811 1477.31 231.258C1516.83 248.627 1563.11 258.868 1601.01 265.925C1603.78 266.443 1606.69 266.449 1609.49 265.941C1612.3 265.434 1614.92 264.429 1617.12 263.012C1647.25 243.652 1682.99 218.253 1708.72 188.815C1734.55 159.303 1751.47 124.326 1740.38 86.7557C1733.93 64.8904 1719.3 46.845 1697.49 35.692C1675.48 24.4473 1647.87 21.1229 1618.26 26.5419C1593.25 31.1187 1574.61 41.8285 1562.73 57.7579C1558.69 63.2653 1555.5 69.0906 1553.23 75.1172C1547.81 70.4974 1541.69 66.3764 1534.98 62.8367C1515.39 52.6665 1492.67 49.5454 1467.66 54.1222Z" fill="url(#paint6_linear_483_2)"/>
</g>
<g filter="url(#filter7_f_483_2)">
<path fill-rule="evenodd" clip-rule="evenodd" d="M1322.28 176.719C1303.23 180.204 1288.4 187.784 1279.52 198.276C1270.73 208.659 1268.46 221.091 1272.18 233.707C1278.65 255.622 1300.34 270.057 1325.37 279.793C1350.28 289.485 1379.63 294.953 1403.69 298.656C1405.45 298.928 1407.3 298.9 1409.1 298.574C1410.9 298.249 1412.59 297.635 1414.02 296.786C1433.58 285.186 1456.82 270.007 1473.75 252.583C1490.74 235.116 1502.15 214.56 1495.72 192.795C1491.99 180.129 1482.96 169.775 1469.24 163.513C1455.39 157.2 1437.83 155.56 1418.85 159.035C1402.81 161.97 1390.73 168.408 1382.87 177.815C1380.2 181.066 1378.06 184.493 1376.51 188.028C1373.14 185.395 1369.3 183.061 1365.08 181.071C1352.76 175.358 1338.32 173.784 1322.28 176.719Z" fill="url(#paint7_linear_483_2)"/>
</g>
<g filter="url(#filter8_f_483_2)">
<path fill-rule="evenodd" clip-rule="evenodd" d="M1373.79 229.174C1343.51 232.013 1319 242.546 1303.2 259.043C1287.54 275.366 1281.65 296.264 1285.03 318.462C1290.91 357.021 1321.9 385.279 1358.95 406.043C1395.85 426.715 1440.45 440.887 1477.16 451.17C1479.84 451.924 1482.74 452.181 1485.6 451.92C1488.45 451.658 1491.2 450.885 1493.58 449.667C1526.21 433.027 1565.25 410.87 1594.89 383.836C1624.65 356.737 1646.29 323.437 1640.45 285.143C1637.05 262.857 1624.99 243.66 1604.84 230.694C1584.51 217.62 1557.52 211.933 1527.33 214.763C1501.84 217.153 1481.83 226.187 1467.81 240.992C1463.04 246.117 1459.06 251.631 1455.97 257.424C1451.23 252.365 1445.71 247.741 1439.52 243.644C1421.45 231.847 1399.29 226.784 1373.79 229.174Z" fill="url(#paint8_linear_483_2)"/>
</g>
<g filter="url(#filter9_f_483_2)">
<path fill-rule="evenodd" clip-rule="evenodd" d="M234.96 172.399C201.468 167.841 171.067 172.883 147.605 186.428C124.363 199.822 109.725 220.507 104.487 244.89C95.3887 287.245 117.228 324.951 148.54 356.228C179.72 387.366 221.73 413.54 256.851 433.616C259.416 435.086 262.406 436.082 265.566 436.519C268.726 436.956 271.964 436.821 275.003 436.126C316.502 426.636 367.058 412.899 409.52 391.641C452.126 370.343 488.542 340.444 497.577 298.381C502.836 273.9 497.606 250.532 481.25 231.749C464.74 212.805 438.165 200.03 404.779 195.487C376.581 191.65 351.593 196.229 330.713 208.425C323.564 212.665 317.118 217.518 311.504 222.888C308.45 216.339 304.396 210.056 299.423 204.167C284.82 187.142 263.157 176.236 234.96 172.399Z" fill="url(#paint9_linear_483_2)"/>
</g>
<defs>
<filter id="filter0_f_483_2" x="658.217" y="192.789" width="385.24" height="248.636" filterUnits="userSpaceOnUse" color-interpolation-filters="sRGB">
<feFlood flood-opacity="0" result="BackgroundImageFix"/>
<feBlend mode="normal" in="SourceGraphic" in2="BackgroundImageFix" result="shape"/>
<feGaussianBlur stdDeviation="3.5" result="effect1_foregroundBlur_483_2"/>
</filter>
<filter id="filter1_f_483_2" x="484.042" y="179.813" width="242.199" height="150.584" filterUnits="userSpaceOnUse" color-interpolation-filters="sRGB">
<feFlood flood-opacity="0" result="BackgroundImageFix"/>
<feBlend mode="normal" in="SourceGraphic" in2="BackgroundImageFix" result="shape"/>
<feGaussianBlur stdDeviation="2.1" result="effect1_foregroundBlur_483_2"/>
</filter>
<filter id="filter2_f_483_2" x="968.593" y="165.059" width="396.66" height="273.561" filterUnits="userSpaceOnUse" color-interpolation-filters="sRGB">
<feFlood flood-opacity="0" result="BackgroundImageFix"/>
<feBlend mode="normal" in="SourceGraphic" in2="BackgroundImageFix" result="shape"/>
<feGaussianBlur stdDeviation="2" result="effect1_foregroundBlur_483_2"/>
</filter>
<filter id="filter3_f_483_2" x="347.204" y="242.028" width="365.771" height="243.674" filterUnits="userSpaceOnUse" color-interpolation-filters="sRGB">
<feFlood flood-opacity="0" result="BackgroundImageFix"/>
<feBlend mode="normal" in="SourceGraphic" in2="BackgroundImageFix" result="shape"/>
<feGaussianBlur stdDeviation="2" result="effect1_foregroundBlur_483_2"/>
</filter>
<filter id="filter4_f_483_2" x="870.617" y="184.479" width="276.226" height="182.819" filterUnits="userSpaceOnUse" color-interpolation-filters="sRGB">
<feFlood flood-opacity="0" result="BackgroundImageFix"/>
<feBlend mode="normal" in="SourceGraphic" in2="BackgroundImageFix" result="shape"/>
<feGaussianBlur stdDeviation="4.05" result="effect1_foregroundBlur_483_2"/>
</filter>
<filter id="filter5_f_483_2" x="51.8307" y="29.1126" width="366.849" height="260.445" filterUnits="userSpaceOnUse" color-interpolation-filters="sRGB">
<feFlood flood-opacity="0" result="BackgroundImageFix"/>
<feBlend mode="normal" in="SourceGraphic" in2="BackgroundImageFix" result="shape"/>
<feGaussianBlur stdDeviation="3.8" result="effect1_foregroundBlur_483_2"/>
</filter>
<filter id="filter6_f_483_2" x="1381.51" y="16.9978" width="369.333" height="256.32" filterUnits="userSpaceOnUse" color-interpolation-filters="sRGB">
<feFlood flood-opacity="0" result="BackgroundImageFix"/>
<feBlend mode="normal" in="SourceGraphic" in2="BackgroundImageFix" result="shape"/>
<feGaussianBlur stdDeviation="3.5" result="effect1_foregroundBlur_483_2"/>
</filter>
<filter id="filter7_f_483_2" x="1266.46" y="153.247" width="235.074" height="149.594" filterUnits="userSpaceOnUse" color-interpolation-filters="sRGB">
<feFlood flood-opacity="0" result="BackgroundImageFix"/>
<feBlend mode="normal" in="SourceGraphic" in2="BackgroundImageFix" result="shape"/>
<feGaussianBlur stdDeviation="2" result="effect1_foregroundBlur_483_2"/>
</filter>
<filter id="filter8_f_483_2" x="1276.71" y="206.652" width="372.099" height="252.767" filterUnits="userSpaceOnUse" color-interpolation-filters="sRGB">
<feFlood flood-opacity="0" result="BackgroundImageFix"/>
<feBlend mode="normal" in="SourceGraphic" in2="BackgroundImageFix" result="shape"/>
<feGaussianBlur stdDeviation="3.7" result="effect1_foregroundBlur_483_2"/>
</filter>
<filter id="filter9_f_483_2" x="96.5062" y="164.861" width="408.939" height="277.809" filterUnits="userSpaceOnUse" color-interpolation-filters="sRGB">
<feFlood flood-opacity="0" result="BackgroundImageFix"/>
<feBlend mode="normal" in="SourceGraphic" in2="BackgroundImageFix" result="shape"/>
<feGaussianBlur stdDeviation="2.95" result="effect1_foregroundBlur_483_2"/>
</filter>
<linearGradient id="paint0_linear_483_2" x1="855.779" y1="203.137" x2="846.473" y2="434.601" gradientUnits="userSpaceOnUse">
<stop stop-color="#FCD1D1"/>
<stop offset="1" stop-color="#FF7171" stop-opacity="0"/>
</linearGradient>
<linearGradient id="paint1_linear_483_2" x1="620.448" y1="197.245" x2="592.084" y2="329.129" gradientUnits="userSpaceOnUse">
<stop stop-color="#FCD1D1"/>
<stop offset="1" stop-color="#FF7171" stop-opacity="0"/>
</linearGradient>
<linearGradient id="paint2_linear_483_2" x1="1141.48" y1="186.909" x2="1187.63" y2="439.109" gradientUnits="userSpaceOnUse">
<stop stop-color="#FCD1D1"/>
<stop offset="1" stop-color="#FF7171" stop-opacity="0"/>
</linearGradient>
<linearGradient id="paint3_linear_483_2" x1="537.221" y1="250.703" x2="523.962" y2="482.078" gradientUnits="userSpaceOnUse">
<stop stop-color="#FFB9B9"/>
<stop offset="1" stop-color="#EF4646" stop-opacity="0"/>
</linearGradient>
<linearGradient id="paint4_linear_483_2" x1="1003.98" y1="195.575" x2="1012.27" y2="359.447" gradientUnits="userSpaceOnUse">
<stop stop-color="#FCD1D1"/>
<stop offset="1" stop-color="#FF2020" stop-opacity="0"/>
</linearGradient>
<linearGradient id="paint5_linear_483_2" x1="270.598" y1="63.7609" x2="204.366" y2="291.064" gradientUnits="userSpaceOnUse">
<stop stop-color="#FCD1D1"/>
<stop offset="1" stop-color="#FF1818" stop-opacity="0"/>
</linearGradient>
<linearGradient id="paint6_linear_483_2" x1="1542.96" y1="40.3233" x2="1585.07" y2="270.411" gradientUnits="userSpaceOnUse">
<stop stop-color="#FCD1D1"/>
<stop offset="1" stop-color="#FF7171" stop-opacity="0"/>
</linearGradient>
<linearGradient id="paint7_linear_483_2" x1="1370.56" y1="167.872" x2="1394.96" y2="301.163" gradientUnits="userSpaceOnUse">
<stop stop-color="#F4AAAA"/>
<stop offset="0.0001" stop-color="#FCC9C9" stop-opacity="0.92"/>
<stop offset="1" stop-color="#FF8484"/>
</linearGradient>
<linearGradient id="paint8_linear_483_2" x1="1450.56" y1="221.96" x2="1472.24" y2="453.172" gradientUnits="userSpaceOnUse">
<stop stop-color="#FCD1D1"/>
<stop offset="1" stop-color="#FF7171" stop-opacity="0"/>
</linearGradient>
<linearGradient id="paint9_linear_483_2" x1="319.871" y1="183.933" x2="285.138" y2="439.182" gradientUnits="userSpaceOnUse">
<stop stop-color="#FCD1D1"/>
<stop offset="1" stop-color="#FF7171" stop-opacity="0"/>
</linearGradient>
</defs>
</svg>
