<svg width="1788" height="1167" viewBox="0 0 1788 1167" fill="none" xmlns="http://www.w3.org/2000/svg">
<g filter="url(#filter0_f_150_21)">
<rect x="1622.98" y="1031.59" width="1440" height="1024" transform="rotate(-179.737 1622.98 1031.59)" fill="url(#paint0_linear_150_21)"/>
</g>
<g filter="url(#filter1_d_150_21)">
<rect x="406.5" y="301.876" width="1029.12" height="619.657" rx="20" transform="rotate(-1.56145 406.5 301.876)" fill="#FFFDFC"/>
</g>
<g filter="url(#filter2_f_150_21)">
<path fill-rule="evenodd" clip-rule="evenodd" d="M775.655 869.934C744.052 868.664 716.669 875.748 696.909 889.879C677.333 903.858 666.744 923.654 665.371 945.979C662.986 984.757 688.534 1016.76 721.924 1042.19C755.172 1067.52 797.724 1087.47 833.041 1102.53C835.621 1103.63 838.526 1104.28 841.509 1104.4C844.492 1104.53 847.465 1104.13 850.176 1103.26C887.183 1091.24 931.958 1074.66 968.182 1052C1004.53 1029.3 1033.94 999.403 1036.31 960.891C1037.69 938.478 1029.53 917.945 1011.74 902.465C993.785 886.853 967.406 877.625 935.901 876.359C909.292 875.289 886.847 881.502 869.282 894.206C863.278 898.613 858.01 903.511 853.585 908.803C849.831 903.182 845.19 897.885 839.756 893.019C823.837 878.969 802.264 871.004 775.655 869.934Z" fill="url(#paint1_linear_150_21)"/>
</g>
<g filter="url(#filter3_f_150_21)">
<path fill-rule="evenodd" clip-rule="evenodd" d="M570.907 856.601C551.367 852.399 533.199 853.363 518.725 859.134C504.388 864.839 494.783 874.809 490.55 887.218C483.196 908.773 494.307 929.599 511.308 947.594C528.237 965.51 551.787 981.432 571.559 993.804C573.004 994.709 574.72 995.391 576.564 995.791C578.407 996.191 580.323 996.298 582.148 996.102C607.07 993.428 637.534 989.037 663.576 980.288C689.705 971.527 712.587 957.948 719.89 936.541C724.141 924.082 722.153 911.63 713.387 900.956C704.538 890.191 689.464 882.088 669.985 877.899C653.534 874.361 638.58 875.38 625.693 880.589C621.277 882.406 617.247 884.581 613.684 887.071C612.19 883.494 610.094 880.001 607.437 876.663C599.623 867.001 587.358 860.139 570.907 856.601Z" fill="url(#paint2_linear_150_21)"/>
</g>
<g filter="url(#filter4_f_150_21)">
<path fill-rule="evenodd" clip-rule="evenodd" d="M1059.13 872.001C1026.64 877.946 1001.59 891.734 986.914 911.2C972.37 930.461 969.127 953.79 976.171 977.662C988.407 1019.13 1026.37 1047 1069.8 1066.14C1113.03 1085.19 1163.67 1096.44 1205.12 1104.19C1208.15 1104.76 1211.34 1104.76 1214.41 1104.21C1217.47 1103.65 1220.34 1102.55 1222.75 1101C1255.69 1079.8 1294.77 1051.97 1322.89 1019.72C1351.13 987.389 1369.61 949.061 1357.46 907.88C1350.38 883.914 1334.37 864.13 1310.5 851.897C1286.42 839.564 1256.22 835.909 1223.83 841.836C1196.48 846.842 1176.1 858.572 1163.11 876.025C1158.7 882.059 1155.21 888.443 1152.73 895.047C1146.81 889.981 1140.1 885.462 1132.76 881.58C1111.33 870.425 1086.48 866.995 1059.13 872.001Z" fill="url(#paint3_linear_150_21)"/>
</g>
<g filter="url(#filter5_f_150_21)">
<path fill-rule="evenodd" clip-rule="evenodd" d="M460.082 916.3C429.656 914.557 403.052 921.228 383.589 935.057C364.307 948.737 353.518 968.367 351.537 990.661C348.096 1029.39 371.78 1061.76 403.217 1087.69C434.52 1113.49 474.95 1134.08 508.55 1149.66C511.005 1150.8 513.786 1151.49 516.658 1151.66C519.529 1151.83 522.407 1151.48 525.045 1150.64C561.071 1139.19 604.719 1123.28 640.304 1101.18C676.011 1079.03 705.237 1049.59 708.655 1011.13C710.643 988.743 703.385 968.096 686.693 952.356C669.846 936.481 644.69 926.861 614.358 925.123C588.741 923.655 566.922 929.529 549.617 941.965C543.699 946.28 538.478 951.098 534.056 956.322C530.603 950.647 526.286 945.282 521.191 940.336C506.26 926.053 485.699 917.768 460.082 916.3Z" fill="url(#paint4_linear_150_21)"/>
</g>
<g filter="url(#filter6_f_150_21)">
<path fill-rule="evenodd" clip-rule="evenodd" d="M947.9 868.425C925.78 869.544 907.448 876.272 895.139 887.472C882.942 898.553 877.592 913.154 878.913 928.946C881.206 956.379 902.246 977.265 928.072 993.031C953.788 1008.73 985.432 1020.05 1011.54 1028.4C1013.45 1029.01 1015.54 1029.28 1017.63 1029.18C1019.71 1029.07 1021.74 1028.61 1023.54 1027.82C1048.06 1017.01 1077.53 1002.49 1100.43 984.247C1123.41 965.961 1140.82 943.053 1138.54 915.809C1137.22 899.954 1129.45 886.029 1115.49 876.272C1101.41 866.433 1082.11 861.621 1060.06 862.737C1041.43 863.679 1026.45 869.48 1015.52 879.536C1011.79 883.019 1008.63 886.8 1006.09 890.805C1002.9 887.09 999.134 883.659 994.857 880.581C982.347 871.711 966.524 867.482 947.9 868.425Z" fill="url(#paint5_linear_150_21)"/>
</g>
<g filter="url(#filter7_f_150_21)">
<path fill-rule="evenodd" clip-rule="evenodd" d="M197.978 712.62C169.336 704.274 141.421 704.847 117.863 713.859C94.5319 722.766 77.2802 739.249 67.5632 760.223C50.6843 796.655 62.1115 832.933 83.251 864.718C104.303 896.364 135.96 924.993 162.802 947.325C164.762 948.959 167.196 950.227 169.897 951.02C172.598 951.814 175.487 952.11 178.317 951.884C216.966 948.786 264.505 943.082 306.461 929.662C348.552 916.225 386.969 894.357 403.731 858.175C413.487 837.118 413.743 815.702 403.211 796.928C392.577 777.991 371.762 763.238 343.21 754.919C319.096 747.892 296.06 748.749 275.065 756.895C267.864 759.741 261.155 763.222 255.074 767.269C253.743 761.062 251.472 754.965 248.306 749.098C238.957 732.11 222.092 719.646 197.978 712.62Z" fill="url(#paint6_linear_150_21)"/>
</g>
<g filter="url(#filter8_f_150_21)">
<path fill-rule="evenodd" clip-rule="evenodd" d="M1467.66 724.122C1437.96 729.558 1415.05 742.147 1401.62 759.913C1388.32 777.493 1385.34 798.78 1391.77 820.559C1402.93 858.389 1437.62 883.811 1477.31 901.258C1516.83 918.627 1563.11 928.868 1601.01 935.925C1603.78 936.443 1606.69 936.449 1609.49 935.941C1612.3 935.434 1614.92 934.429 1617.12 933.012C1647.25 913.652 1682.99 888.253 1708.72 858.815C1734.55 829.303 1751.47 794.326 1740.38 756.756C1733.93 734.89 1719.3 716.845 1697.49 705.692C1675.48 694.447 1647.87 691.123 1618.26 696.542C1593.25 701.119 1574.61 711.829 1562.73 727.758C1558.69 733.265 1555.5 739.091 1553.23 745.117C1547.81 740.497 1541.69 736.376 1534.98 732.837C1515.39 722.667 1492.67 719.545 1467.66 724.122Z" fill="url(#paint7_linear_150_21)"/>
</g>
<g filter="url(#filter9_f_150_21)">
<path fill-rule="evenodd" clip-rule="evenodd" d="M1322.28 846.719C1303.23 850.204 1288.4 857.784 1279.52 868.276C1270.73 878.659 1268.46 891.091 1272.18 903.707C1278.65 925.622 1300.34 940.057 1325.37 949.793C1350.28 959.485 1379.63 964.953 1403.69 968.656C1405.45 968.928 1407.3 968.9 1409.1 968.574C1410.9 968.249 1412.59 967.635 1414.02 966.786C1433.58 955.186 1456.82 940.007 1473.75 922.583C1490.74 905.116 1502.15 884.56 1495.72 862.795C1491.99 850.129 1482.96 839.775 1469.24 833.513C1455.39 827.2 1437.83 825.56 1418.85 829.035C1402.81 831.97 1390.73 838.408 1382.87 847.815C1380.2 851.066 1378.06 854.493 1376.51 858.028C1373.14 855.395 1369.3 853.061 1365.08 851.071C1352.76 845.358 1338.32 843.784 1322.28 846.719Z" fill="url(#paint8_linear_150_21)"/>
</g>
<g filter="url(#filter10_f_150_21)">
<path fill-rule="evenodd" clip-rule="evenodd" d="M1373.79 899.174C1343.51 902.013 1319 912.546 1303.2 929.043C1287.54 945.366 1281.65 966.264 1285.03 988.462C1290.91 1027.02 1321.9 1055.28 1358.95 1076.04C1395.85 1096.71 1440.45 1110.89 1477.16 1121.17C1479.84 1121.92 1482.74 1122.18 1485.6 1121.92C1488.45 1121.66 1491.2 1120.88 1493.58 1119.67C1526.21 1103.03 1565.25 1080.87 1594.89 1053.84C1624.65 1026.74 1646.29 993.437 1640.45 955.143C1637.05 932.857 1624.99 913.66 1604.84 900.694C1584.51 887.62 1557.52 881.933 1527.33 884.763C1501.84 887.153 1481.83 896.187 1467.81 910.992C1463.04 916.117 1459.06 921.631 1455.97 927.424C1451.23 922.365 1445.71 917.741 1439.52 913.644C1421.45 901.847 1399.29 896.784 1373.79 899.174Z" fill="url(#paint9_linear_150_21)"/>
</g>
<g filter="url(#filter11_f_150_21)">
<path fill-rule="evenodd" clip-rule="evenodd" d="M234.96 842.399C201.468 837.841 171.067 842.883 147.605 856.428C124.363 869.822 109.725 890.507 104.487 914.89C95.3887 957.245 117.228 994.951 148.54 1026.23C179.72 1057.37 221.73 1083.54 256.851 1103.62C259.416 1105.09 262.406 1106.08 265.566 1106.52C268.726 1106.96 271.964 1106.82 275.003 1106.13C316.502 1096.64 367.058 1082.9 409.52 1061.64C452.126 1040.34 488.542 1010.44 497.577 968.381C502.836 943.9 497.606 920.532 481.25 901.749C464.74 882.805 438.165 870.03 404.779 865.487C376.581 861.65 351.593 866.229 330.713 878.425C323.564 882.665 317.118 887.518 311.504 892.888C308.45 886.339 304.396 880.056 299.423 874.167C284.82 857.142 263.157 846.236 234.96 842.399Z" fill="url(#paint10_linear_150_21)"/>
</g>
<path d="M445.74 513.538C445.875 514.485 446.103 515.4 446.418 516.257C446.719 517.146 447.114 517.964 447.592 518.683C448.282 519.758 449.115 520.633 450.043 521.259C451.912 522.497 454.054 522.647 456.005 521.676C456.922 521.203 457.774 520.51 458.523 519.626L458.634 519.456L460.07 517.627L461.363 519.647L461.462 519.832C462.141 520.815 462.938 521.624 463.815 522.222C465.684 523.461 467.826 523.611 469.777 522.639C470.747 522.146 471.639 521.392 472.406 520.419C473.453 519.122 474.222 517.439 474.627 515.559C474.841 514.606 474.962 513.616 474.988 512.617C475.023 511.676 474.974 510.734 474.839 509.817C474.697 508.887 474.476 507.985 474.181 507.13C473.86 506.249 473.459 505.433 472.987 504.701L461.226 486.339L448.172 502.965C447.649 503.617 447.194 504.375 446.826 505.216C446.084 506.81 445.659 508.657 445.598 510.561C445.55 511.558 445.598 512.56 445.74 513.538Z" fill="#FE7474"/>
<line y1="-1.5" x2="22.419" y2="-1.5" transform="matrix(-0.649252 0.760573 -0.431851 -0.901945 458.47 522.781)" stroke="#FE7474" stroke-width="3"/>
<path d="M459.457 504.269L463.652 802.609" stroke="#FE7474" stroke-width="5"/>
<line y1="-1.5" x2="22.419" y2="-1.5" transform="matrix(-0.649252 0.760573 -0.431851 -0.901945 458.892 568.918)" stroke="#FE7474" stroke-width="3"/>
<line y1="-1.5" x2="22.419" y2="-1.5" transform="matrix(-0.649252 0.760573 -0.431851 -0.901945 459.306 614.286)" stroke="#FE7474" stroke-width="3"/>
<line y1="-1.5" x2="22.419" y2="-1.5" transform="matrix(-0.649252 0.760573 -0.431851 -0.901945 459.72 659.654)" stroke="#FE7474" stroke-width="3"/>
<line y1="-1.5" x2="22.419" y2="-1.5" transform="matrix(-0.649252 0.760573 -0.431851 -0.901945 461.605 705.009)" stroke="#FE7474" stroke-width="3"/>
<line y1="-1.5" x2="22.419" y2="-1.5" transform="matrix(-0.649252 0.760573 -0.431851 -0.901945 462.027 751.146)" stroke="#FE7474" stroke-width="3"/>
<line y1="-1.5" x2="22.1004" y2="-1.5" transform="matrix(-0.650407 -0.759585 0.427232 -0.904142 472.844 539.567)" stroke="#FE7474" stroke-width="3"/>
<line y1="-1.5" x2="22.1004" y2="-1.5" transform="matrix(-0.650407 -0.759585 0.427232 -0.904142 473.266 585.705)" stroke="#FE7474" stroke-width="3"/>
<line y1="-1.5" x2="22.1004" y2="-1.5" transform="matrix(-0.650407 -0.759585 0.427232 -0.904142 475.158 631.828)" stroke="#FE7474" stroke-width="3"/>
<line y1="-1.5" x2="22.1004" y2="-1.5" transform="matrix(-0.650407 -0.759585 0.427232 -0.904142 475.572 677.197)" stroke="#FE7474" stroke-width="3"/>
<line y1="-1.5" x2="22.1004" y2="-1.5" transform="matrix(-0.650407 -0.759585 0.427232 -0.904142 475.979 721.796)" stroke="#FE7474" stroke-width="3"/>
<line y1="-1.5" x2="22.1004" y2="-1.5" transform="matrix(-0.650407 -0.759585 0.427232 -0.904142 476.401 767.933)" stroke="#FE7474" stroke-width="3"/>
<ellipse cx="13.0975" cy="4.44296" rx="13.0975" ry="4.44296" transform="matrix(0.781264 -0.6242 0.312455 0.949932 441.948 808.24)" fill="#FE7474"/>
<ellipse cx="13.1149" cy="4.29068" rx="13.1149" ry="4.29068" transform="matrix(0.790355 0.612648 -0.297088 0.95485 462.571 791.899)" fill="#FE7474"/>
<path d="M793.168 818.427C792.225 818.585 791.316 818.836 790.467 819.172C789.585 819.494 788.777 819.909 788.07 820.404C787.012 821.121 786.158 821.974 785.555 822.918C784.362 824.816 784.264 826.961 785.283 828.888C785.778 829.793 786.492 830.628 787.394 831.355L787.567 831.462L789.43 832.853L787.442 834.195L787.26 834.298C786.293 835.001 785.504 835.817 784.928 836.709C783.735 838.607 783.637 840.752 784.656 842.679C785.173 843.636 785.948 844.511 786.939 845.253C788.262 846.268 789.963 846.996 791.852 847.355C792.811 847.545 793.803 847.643 794.802 847.644C795.744 847.656 796.684 847.584 797.598 847.427C798.524 847.262 799.421 847.019 800.268 846.703C801.141 846.361 801.947 845.94 802.667 845.45L820.736 833.245L803.797 820.601C803.133 820.094 802.364 819.658 801.515 819.31C799.902 818.607 798.046 818.228 796.141 818.212C795.143 818.189 794.143 818.261 793.168 818.427Z" fill="#FE7474"/>
<line y1="-1.5" x2="22.419" y2="-1.5" transform="matrix(-0.776185 -0.630505 0.891142 -0.453724 784.239 831.379)" stroke="#FE7474" stroke-width="3"/>
<path d="M802.77 831.914L504.62 843.386" stroke="#FE7474" stroke-width="5"/>
<line y1="-1.5" x2="22.419" y2="-1.5" transform="matrix(-0.776185 -0.630505 0.891142 -0.453724 738.125 832.926)" stroke="#FE7474" stroke-width="3"/>
<line y1="-1.5" x2="22.419" y2="-1.5" transform="matrix(-0.776185 -0.630505 0.891142 -0.453724 692.781 834.447)" stroke="#FE7474" stroke-width="3"/>
<line y1="-1.5" x2="22.419" y2="-1.5" transform="matrix(-0.776185 -0.630505 0.891142 -0.453724 647.437 835.968)" stroke="#FE7474" stroke-width="3"/>
<line y1="-1.5" x2="22.419" y2="-1.5" transform="matrix(-0.776185 -0.630505 0.891142 -0.453724 602.141 838.959)" stroke="#FE7474" stroke-width="3"/>
<line y1="-1.5" x2="22.419" y2="-1.5" transform="matrix(-0.776185 -0.630505 0.891142 -0.453724 556.028 840.505)" stroke="#FE7474" stroke-width="3"/>
<line y1="-1.5" x2="22.1004" y2="-1.5" transform="matrix(0.743493 -0.668743 0.914295 0.405049 767.808 846.158)" stroke="#FE7474" stroke-width="3"/>
<line y1="-1.5" x2="22.1004" y2="-1.5" transform="matrix(0.743493 -0.668743 0.914295 0.405049 721.694 847.705)" stroke="#FE7474" stroke-width="3"/>
<line y1="-1.5" x2="22.1004" y2="-1.5" transform="matrix(0.743493 -0.668743 0.914295 0.405049 675.63 850.722)" stroke="#FE7474" stroke-width="3"/>
<line y1="-1.5" x2="22.1004" y2="-1.5" transform="matrix(0.743493 -0.668743 0.914295 0.405049 630.286 852.243)" stroke="#FE7474" stroke-width="3"/>
<line y1="-1.5" x2="22.1004" y2="-1.5" transform="matrix(0.743493 -0.668743 0.914295 0.405049 585.709 853.738)" stroke="#FE7474" stroke-width="3"/>
<line y1="-1.5" x2="22.1004" y2="-1.5" transform="matrix(0.743493 -0.668743 0.914295 0.405049 539.596 855.284)" stroke="#FE7474" stroke-width="3"/>
<ellipse cx="13.0975" cy="4.44296" rx="13.0975" ry="4.44296" transform="matrix(0.643073 0.765805 -0.942028 0.335535 498.461 821.826)" fill="#FE7474"/>
<ellipse cx="13.1149" cy="4.29068" rx="13.1149" ry="4.29068" transform="matrix(-0.593186 0.805065 -0.961813 -0.273706 515.3 842.044)" fill="#FE7474"/>
<defs>
<filter id="filter0_f_150_21" x="179" y="-2.9978" width="1452.68" height="1038.59" filterUnits="userSpaceOnUse" color-interpolation-filters="sRGB">
<feFlood flood-opacity="0" result="BackgroundImageFix"/>
<feBlend mode="normal" in="SourceGraphic" in2="BackgroundImageFix" result="shape"/>
<feGaussianBlur stdDeviation="2" result="effect1_foregroundBlur_150_21"/>
</filter>
<filter id="filter1_d_150_21" x="379.738" y="251.071" width="1099.15" height="700.995" filterUnits="userSpaceOnUse" color-interpolation-filters="sRGB">
<feFlood flood-opacity="0" result="BackgroundImageFix"/>
<feColorMatrix in="SourceAlpha" type="matrix" values="0 0 0 0 0 0 0 0 0 0 0 0 0 0 0 0 0 0 127 0" result="hardAlpha"/>
<feOffset dy="4"/>
<feGaussianBlur stdDeviation="13.65"/>
<feComposite in2="hardAlpha" operator="out"/>
<feColorMatrix type="matrix" values="0 0 0 0 0 0 0 0 0 0 0 0 0 0 0 0 0 0 0.25 0"/>
<feBlend mode="normal" in2="BackgroundImageFix" result="effect1_dropShadow_150_21"/>
<feBlend mode="normal" in="SourceGraphic" in2="effect1_dropShadow_150_21" result="shape"/>
</filter>
<filter id="filter2_f_150_21" x="658.217" y="862.789" width="385.24" height="248.636" filterUnits="userSpaceOnUse" color-interpolation-filters="sRGB">
<feFlood flood-opacity="0" result="BackgroundImageFix"/>
<feBlend mode="normal" in="SourceGraphic" in2="BackgroundImageFix" result="shape"/>
<feGaussianBlur stdDeviation="3.5" result="effect1_foregroundBlur_150_21"/>
</filter>
<filter id="filter3_f_150_21" x="484.042" y="849.813" width="242.199" height="150.584" filterUnits="userSpaceOnUse" color-interpolation-filters="sRGB">
<feFlood flood-opacity="0" result="BackgroundImageFix"/>
<feBlend mode="normal" in="SourceGraphic" in2="BackgroundImageFix" result="shape"/>
<feGaussianBlur stdDeviation="2.1" result="effect1_foregroundBlur_150_21"/>
</filter>
<filter id="filter4_f_150_21" x="968.593" y="835.059" width="396.66" height="273.561" filterUnits="userSpaceOnUse" color-interpolation-filters="sRGB">
<feFlood flood-opacity="0" result="BackgroundImageFix"/>
<feBlend mode="normal" in="SourceGraphic" in2="BackgroundImageFix" result="shape"/>
<feGaussianBlur stdDeviation="2" result="effect1_foregroundBlur_150_21"/>
</filter>
<filter id="filter5_f_150_21" x="347.204" y="912.028" width="365.771" height="243.674" filterUnits="userSpaceOnUse" color-interpolation-filters="sRGB">
<feFlood flood-opacity="0" result="BackgroundImageFix"/>
<feBlend mode="normal" in="SourceGraphic" in2="BackgroundImageFix" result="shape"/>
<feGaussianBlur stdDeviation="2" result="effect1_foregroundBlur_150_21"/>
</filter>
<filter id="filter6_f_150_21" x="870.617" y="854.479" width="276.226" height="182.819" filterUnits="userSpaceOnUse" color-interpolation-filters="sRGB">
<feFlood flood-opacity="0" result="BackgroundImageFix"/>
<feBlend mode="normal" in="SourceGraphic" in2="BackgroundImageFix" result="shape"/>
<feGaussianBlur stdDeviation="4.05" result="effect1_foregroundBlur_150_21"/>
</filter>
<filter id="filter7_f_150_21" x="51.8307" y="699.113" width="366.849" height="260.445" filterUnits="userSpaceOnUse" color-interpolation-filters="sRGB">
<feFlood flood-opacity="0" result="BackgroundImageFix"/>
<feBlend mode="normal" in="SourceGraphic" in2="BackgroundImageFix" result="shape"/>
<feGaussianBlur stdDeviation="3.8" result="effect1_foregroundBlur_150_21"/>
</filter>
<filter id="filter8_f_150_21" x="1381.51" y="686.998" width="369.333" height="256.32" filterUnits="userSpaceOnUse" color-interpolation-filters="sRGB">
<feFlood flood-opacity="0" result="BackgroundImageFix"/>
<feBlend mode="normal" in="SourceGraphic" in2="BackgroundImageFix" result="shape"/>
<feGaussianBlur stdDeviation="3.5" result="effect1_foregroundBlur_150_21"/>
</filter>
<filter id="filter9_f_150_21" x="1266.46" y="823.247" width="235.074" height="149.594" filterUnits="userSpaceOnUse" color-interpolation-filters="sRGB">
<feFlood flood-opacity="0" result="BackgroundImageFix"/>
<feBlend mode="normal" in="SourceGraphic" in2="BackgroundImageFix" result="shape"/>
<feGaussianBlur stdDeviation="2" result="effect1_foregroundBlur_150_21"/>
</filter>
<filter id="filter10_f_150_21" x="1276.71" y="876.652" width="372.099" height="252.767" filterUnits="userSpaceOnUse" color-interpolation-filters="sRGB">
<feFlood flood-opacity="0" result="BackgroundImageFix"/>
<feBlend mode="normal" in="SourceGraphic" in2="BackgroundImageFix" result="shape"/>
<feGaussianBlur stdDeviation="3.7" result="effect1_foregroundBlur_150_21"/>
</filter>
<filter id="filter11_f_150_21" x="96.5062" y="834.861" width="408.939" height="277.809" filterUnits="userSpaceOnUse" color-interpolation-filters="sRGB">
<feFlood flood-opacity="0" result="BackgroundImageFix"/>
<feBlend mode="normal" in="SourceGraphic" in2="BackgroundImageFix" result="shape"/>
<feGaussianBlur stdDeviation="2.95" result="effect1_foregroundBlur_150_21"/>
</filter>
<linearGradient id="paint0_linear_150_21" x1="2342.98" y1="1031.59" x2="2342.98" y2="2055.59" gradientUnits="userSpaceOnUse">
<stop offset="0.03" stop-color="#FED2D2"/>
<stop offset="0.245" stop-color="#F4E9E9" stop-opacity="0.87"/>
<stop offset="1" stop-color="#F1E8E8" stop-opacity="0"/>
</linearGradient>
<linearGradient id="paint1_linear_150_21" x1="855.779" y1="873.137" x2="846.473" y2="1104.6" gradientUnits="userSpaceOnUse">
<stop stop-color="#FCD1D1"/>
<stop offset="1" stop-color="#FF7171" stop-opacity="0"/>
</linearGradient>
<linearGradient id="paint2_linear_150_21" x1="620.448" y1="867.245" x2="592.084" y2="999.129" gradientUnits="userSpaceOnUse">
<stop stop-color="#FCD1D1"/>
<stop offset="1" stop-color="#FF7171" stop-opacity="0"/>
</linearGradient>
<linearGradient id="paint3_linear_150_21" x1="1141.48" y1="856.909" x2="1187.63" y2="1109.11" gradientUnits="userSpaceOnUse">
<stop stop-color="#FCD1D1"/>
<stop offset="1" stop-color="#FF7171" stop-opacity="0"/>
</linearGradient>
<linearGradient id="paint4_linear_150_21" x1="537.221" y1="920.703" x2="523.962" y2="1152.08" gradientUnits="userSpaceOnUse">
<stop stop-color="#FFB9B9"/>
<stop offset="1" stop-color="#EF4646" stop-opacity="0"/>
</linearGradient>
<linearGradient id="paint5_linear_150_21" x1="1003.98" y1="865.575" x2="1012.27" y2="1029.45" gradientUnits="userSpaceOnUse">
<stop stop-color="#FCD1D1"/>
<stop offset="1" stop-color="#FF2020" stop-opacity="0"/>
</linearGradient>
<linearGradient id="paint6_linear_150_21" x1="270.598" y1="733.761" x2="204.366" y2="961.064" gradientUnits="userSpaceOnUse">
<stop stop-color="#FCD1D1"/>
<stop offset="1" stop-color="#FF1818" stop-opacity="0"/>
</linearGradient>
<linearGradient id="paint7_linear_150_21" x1="1542.96" y1="710.323" x2="1585.07" y2="940.411" gradientUnits="userSpaceOnUse">
<stop stop-color="#FCD1D1"/>
<stop offset="1" stop-color="#FF7171" stop-opacity="0"/>
</linearGradient>
<linearGradient id="paint8_linear_150_21" x1="1370.56" y1="837.872" x2="1394.96" y2="971.163" gradientUnits="userSpaceOnUse">
<stop stop-color="#F4AAAA"/>
<stop offset="0.0001" stop-color="#FCC9C9" stop-opacity="0.92"/>
<stop offset="1" stop-color="#FF8484"/>
</linearGradient>
<linearGradient id="paint9_linear_150_21" x1="1450.56" y1="891.96" x2="1472.24" y2="1123.17" gradientUnits="userSpaceOnUse">
<stop stop-color="#FCD1D1"/>
<stop offset="1" stop-color="#FF7171" stop-opacity="0"/>
</linearGradient>
<linearGradient id="paint10_linear_150_21" x1="319.871" y1="853.933" x2="285.138" y2="1109.18" gradientUnits="userSpaceOnUse">
<stop stop-color="#FCD1D1"/>
<stop offset="1" stop-color="#FF7171" stop-opacity="0"/>
</linearGradient>
</defs>
</svg>
